<?xml version="1.0" encoding="UTF-8"?>
<!DOCTYPE svg PUBLIC "-//W3C//DTD SVG 1.1//EN" "http://www.w3.org/Graphics/SVG/1.1/DTD/svg11.dtd">
<svg xmlns="http://www.w3.org/2000/svg" version="1.1" width="525px" height="375px" style="shape-rendering:geometricPrecision; text-rendering:geometricPrecision; image-rendering:optimizeQuality; fill-rule:evenodd; clip-rule:evenodd" xmlns:xlink="http://www.w3.org/1999/xlink">
<g><path style="opacity:0.989" fill="#38323e" d="M 389.5,135.5 C 389.062,135.435 388.728,135.601 388.5,136C 394.653,155.923 399.986,176.09 404.5,196.5C 399.236,197.399 394.236,199.065 389.5,201.5C 388.522,201.023 387.689,200.357 387,199.5C 384.313,200.713 381.48,201.38 378.5,201.5C 378.821,200.183 379.154,198.849 379.5,197.5C 377.469,189.46 375.469,181.46 373.5,173.5C 376.413,174.241 379.413,174.741 382.5,175C 378.68,178.342 378.68,181.509 382.5,184.5C 380.449,189.617 382.115,191.451 387.5,190C 388.376,188.414 389.376,186.914 390.5,185.5C 391.719,186.263 392.719,187.263 393.5,188.5C 393.833,187.667 394.167,186.833 394.5,186C 393.187,182.631 392.354,179.131 392,175.5C 390.103,173.601 387.936,172.101 385.5,171C 386.293,169.915 386.96,168.748 387.5,167.5C 387.113,164.762 386.113,162.428 384.5,160.5C 384.331,158.088 384.997,155.921 386.5,154C 386.43,153.235 386.097,152.735 385.5,152.5C 384.5,152.5 383.5,152.5 382.5,152.5C 382.5,152.167 382.5,151.833 382.5,151.5C 381.596,147.625 380.596,143.792 379.5,140C 373.18,137.836 370.18,140.003 370.5,146.5C 370.918,147.222 371.584,147.722 372.5,148C 371.856,153.236 373.19,158.069 376.5,162.5C 375.58,164.786 375.58,167.119 376.5,169.5C 378.099,169.232 379.432,169.566 380.5,170.5C 377.924,170.468 375.591,171.135 373.5,172.5C 369.655,148.122 363.155,124.456 354,101.5C 356.892,120.566 360.392,139.566 364.5,158.5C 357.833,159.167 351.167,159.833 344.5,160.5C 342.759,150.904 341.425,141.237 340.5,131.5C 337.753,125.091 335.92,118.424 335,111.5C 334,111.5 333,111.5 332,111.5C 331.489,109.122 330.822,106.788 330,104.5C 332.04,123.107 333.874,141.774 335.5,160.5C 338.167,160.5 340.833,160.5 343.5,160.5C 343.616,163.86 343.949,167.193 344.5,170.5C 342.139,170.674 339.806,171.007 337.5,171.5C 337.505,175.534 337.838,179.534 338.5,183.5C 330.569,184.853 322.569,185.686 314.5,186C 313.536,190.066 313.203,194.233 313.5,198.5C 311.5,198.5 309.5,198.5 307.5,198.5C 307.5,194.167 307.5,189.833 307.5,185.5C 300.82,185.612 294.153,185.946 287.5,186.5C 287.5,182.5 287.5,178.5 287.5,174.5C 284.167,174.5 280.833,174.5 277.5,174.5C 278.423,170.936 278.756,167.269 278.5,163.5C 271.833,163.5 265.167,163.5 258.5,163.5C 260.511,146.866 260.844,130.199 259.5,113.5C 261.167,95.501 262.833,77.501 264.5,59.5C 264.712,56.9886 264.045,54.8219 262.5,53C 267.19,52.4971 271.857,51.8304 276.5,51C 275.333,50.8333 274.167,50.6667 273,50.5C 263.67,51.8003 254.336,51.8003 245,50.5C 243.019,50.6292 241.353,51.2958 240,52.5C 235.046,88.9759 227.879,124.976 218.5,160.5C 211.108,160.181 203.775,160.181 196.5,160.5C 194.973,163.66 194.307,166.993 194.5,170.5C 201.507,171.568 208.507,171.568 215.5,170.5C 216.351,167.422 217.351,164.422 218.5,161.5C 221.127,162.092 223.794,162.425 226.5,162.5C 225.537,166.101 224.87,169.767 224.5,173.5C 221.482,173.335 218.482,173.502 215.5,174C 214.402,177.127 213.402,180.293 212.5,183.5C 204.848,182.369 197.181,181.369 189.5,180.5C 188.626,183.789 187.959,187.123 187.5,190.5C 185.254,190.064 183.087,189.397 181,188.5C 178.545,196.499 175.711,204.333 172.5,212C 174.058,212.21 175.391,212.71 176.5,213.5C 174.94,213.519 173.44,213.852 172,214.5C 163.233,211.6 154.399,208.933 145.5,206.5C 147.369,205.835 149.369,205.169 151.5,204.5C 154.663,197.826 156.996,190.826 158.5,183.5C 155.864,181.4 153.031,180.733 150,181.5C 146.931,188.874 143.764,196.208 140.5,203.5C 141.949,204.172 143.282,204.839 144.5,205.5C 142.856,205.286 141.356,205.62 140,206.5C 128.92,201.646 117.754,197.312 106.5,193.5C 101.949,196.539 98.6158,195.539 96.5,190.5C 100.639,179.56 105.305,168.894 110.5,158.5C 114.008,159.504 117.174,161.171 120,163.5C 121.373,160.588 122.873,157.754 124.5,155C 120.944,153.392 117.611,151.559 114.5,149.5C 114.604,147.297 115.27,145.297 116.5,143.5C 120.015,144.728 123.515,146.062 127,147.5C 129.06,145.718 130.893,143.718 132.5,141.5C 133.937,142.725 135.604,143.725 137.5,144.5C 144.78,132.723 150.447,120.223 154.5,107C 153.966,102.203 154.966,97.536 157.5,93C 157.333,92.5 157.167,92 157,91.5C 149.091,107.652 140.924,123.652 132.5,139.5C 128.225,138.681 124.225,137.347 120.5,135.5C 133.815,105.395 146.648,75.0615 159,44.5C 163.01,33.9707 166.51,23.304 169.5,12.5C 188.24,17.3569 206.906,22.5236 225.5,28C 236.62,30.405 247.787,32.5717 259,34.5C 279.606,31.724 299.439,26.224 318.5,18C 327.045,15.1442 335.712,13.1442 344.5,12C 352.597,36.29 361.097,60.4566 370,84.5C 378.961,100.547 385.461,117.547 389.5,135.5 Z"/></g>
<g><path style="opacity:1" fill="#2f2b36" d="M 258.5,163.5 C 257.883,163.611 257.383,163.944 257,164.5C 256.502,167.817 256.335,171.15 256.5,174.5C 263.5,174.5 270.5,174.5 277.5,174.5C 277.5,178.167 277.5,181.833 277.5,185.5C 269.868,186.358 262.201,186.691 254.5,186.5C 251.167,186.5 247.833,186.5 244.5,186.5C 238.69,185.51 232.69,185.177 226.5,185.5C 221.99,184.659 217.324,183.992 212.5,183.5C 213.402,180.293 214.402,177.127 215.5,174C 218.482,173.502 221.482,173.335 224.5,173.5C 231.42,174.628 238.42,174.795 245.5,174C 246.432,170.915 247.099,167.748 247.5,164.5C 250.448,164.777 253.281,164.444 256,163.5C 257.719,149.542 258.885,135.542 259.5,121.5C 258.5,121.5 257.5,121.5 256.5,121.5C 256.741,119.102 256.074,117.102 254.5,115.5C 256.813,94.5636 258.479,73.7303 259.5,53C 254.481,52.5892 249.481,52.0892 244.5,51.5C 241.984,71.2643 238.817,90.931 235,110.5C 234.567,125.188 232.234,139.521 228,153.5C 227.502,156.482 227.335,159.482 227.5,162.5C 227.167,162.5 226.833,162.5 226.5,162.5C 223.794,162.425 221.127,162.092 218.5,161.5C 218.5,161.167 218.5,160.833 218.5,160.5C 227.879,124.976 235.046,88.9759 240,52.5C 241.353,51.2958 243.019,50.6292 245,50.5C 254.336,51.8003 263.67,51.8003 273,50.5C 274.167,50.6667 275.333,50.8333 276.5,51C 271.857,51.8304 267.19,52.4971 262.5,53C 264.045,54.8219 264.712,56.9886 264.5,59.5C 262.833,77.501 261.167,95.501 259.5,113.5C 260.844,130.199 260.511,146.866 258.5,163.5 Z"/></g>
<g><path style="opacity:1" fill="#3a333f" d="M 254.5,115.5 C 252.455,131.582 250.122,147.582 247.5,163.5C 240.789,163.713 234.123,163.38 227.5,162.5C 227.335,159.482 227.502,156.482 228,153.5C 232.234,139.521 234.567,125.188 235,110.5C 238.817,90.931 241.984,71.2643 244.5,51.5C 249.481,52.0892 254.481,52.5892 259.5,53C 258.479,73.7303 256.813,94.5636 254.5,115.5 Z"/></g>
<g><path style="opacity:0.999" fill="#1e1d26" d="M 373.5,172.5 C 373.5,172.833 373.5,173.167 373.5,173.5C 375.469,181.46 377.469,189.46 379.5,197.5C 379.154,198.849 378.821,200.183 378.5,201.5C 377.833,201.833 377.167,202.167 376.5,202.5C 375.791,201.596 374.791,201.263 373.5,201.5C 372.514,197.557 371.848,193.557 371.5,189.5C 370.49,186.076 369.49,182.743 368.5,179.5C 367.941,175.147 367.275,170.814 366.5,166.5C 366.037,163.779 365.371,161.112 364.5,158.5C 360.392,139.566 356.892,120.566 354,101.5C 363.155,124.456 369.655,148.122 373.5,172.5 Z"/></g>
<g><path style="opacity:0.999" fill="#1e1e27" d="M 161.5,154.5 C 161.5,153.5 161.5,152.5 161.5,151.5C 167.733,135.316 173.9,118.982 180,102.5C 179.287,106.827 179.453,111.161 180.5,115.5C 179.188,120.079 178.521,124.746 178.5,129.5C 177.5,129.5 176.5,129.5 175.5,129.5C 174.289,135.472 173.122,141.472 172,147.5C 169.762,149.309 168.595,151.642 168.5,154.5C 166.167,154.5 163.833,154.5 161.5,154.5 Z"/></g>
<g><path style="opacity:0.999" fill="#1d1d26" d="M 190.5,158.5 C 190.5,157.833 190.5,157.167 190.5,156.5C 195.831,140.339 200.664,124.006 205,107.5C 205.167,109.833 205.333,112.167 205.5,114.5C 204.483,128.95 201.65,143.283 197,157.5C 194.959,158.423 192.792,158.756 190.5,158.5 Z"/></g>
<g><path style="opacity:0.999" fill="#1d1d26" d="M 307.5,162.5 C 306.678,144.48 305.845,126.48 305,108.5C 308.698,114.595 311.031,121.261 312,128.5C 312.5,139.828 312.667,151.162 312.5,162.5C 310.833,162.5 309.167,162.5 307.5,162.5 Z"/></g>
<g><path style="opacity:1" fill="#24222c" d="M 132.5,141.5 C 132.5,140.833 132.5,140.167 132.5,139.5C 140.924,123.652 149.091,107.652 157,91.5C 157.167,92 157.333,92.5 157.5,93C 154.966,97.536 153.966,102.203 154.5,107C 150.447,120.223 144.78,132.723 137.5,144.5C 135.604,143.725 133.937,142.725 132.5,141.5 Z"/></g>
<g><path style="opacity:0.999" fill="#1e1e27" d="M 278.5,163.5 C 279.057,142.007 279.39,120.507 279.5,99C 279.493,82.447 278.826,66.1137 277.5,50C 278.833,49.3333 280.167,49.3333 281.5,50C 280.34,72.7607 280.173,95.594 281,118.5C 281.802,124.902 283.469,130.902 286,136.5C 286.5,145.494 286.666,154.494 286.5,163.5C 283.833,163.5 281.167,163.5 278.5,163.5 Z"/></g>
<g><path style="opacity:0.999" fill="#1e1e27" d="M 254.5,115.5 C 256.074,117.102 256.741,119.102 256.5,121.5C 257.5,121.5 258.5,121.5 259.5,121.5C 258.885,135.542 257.719,149.542 256,163.5C 253.281,164.444 250.448,164.777 247.5,164.5C 247.5,164.167 247.5,163.833 247.5,163.5C 250.122,147.582 252.455,131.582 254.5,115.5 Z"/></g>
<g><path style="opacity:1" fill="#d7acd8" d="M 374.5,131.5 C 376.5,131.5 378.5,131.5 380.5,131.5C 380.62,133.199 380.954,134.865 381.5,136.5C 381.167,137.167 380.833,137.833 380.5,138.5C 379.571,137.311 379.238,135.978 379.5,134.5C 378.167,134.5 376.833,134.5 375.5,134.5C 375.649,135.552 375.483,136.552 375,137.5C 374.261,136.426 373.261,135.759 372,135.5C 369.085,137.08 368.251,136.413 369.5,133.5C 371.291,132.83 372.958,132.163 374.5,131.5 Z"/></g>
<g><path style="opacity:1" fill="#26242d" d="M 344.5,160.5 C 344.167,160.5 343.833,160.5 343.5,160.5C 340.833,160.5 338.167,160.5 335.5,160.5C 333.874,141.774 332.04,123.107 330,104.5C 330.822,106.788 331.489,109.122 332,111.5C 333,111.5 334,111.5 335,111.5C 335.92,118.424 337.753,125.091 340.5,131.5C 341.425,141.237 342.759,150.904 344.5,160.5 Z"/></g>
<g><path style="opacity:1" fill="#77577c" d="M 120.5,135.5 C 124.225,137.347 128.225,138.681 132.5,139.5C 132.5,140.167 132.5,140.833 132.5,141.5C 130.893,143.718 129.06,145.718 127,147.5C 123.515,146.062 120.015,144.728 116.5,143.5C 117.467,140.566 118.8,137.9 120.5,135.5 Z"/></g>
<g><path style="opacity:0.957" fill="#1d1c26" d="M 389.5,135.5 C 397.818,154.099 406.151,172.766 414.5,191.5C 411.111,193.177 407.778,194.844 404.5,196.5C 399.986,176.09 394.653,155.923 388.5,136C 388.728,135.601 389.062,135.435 389.5,135.5 Z"/></g>
<g><path style="opacity:1" fill="#725278" d="M 161.5,151.5 C 161.5,152.5 161.5,153.5 161.5,154.5C 160.275,155.937 159.275,157.604 158.5,159.5C 152.382,159.645 146.382,158.478 140.5,156C 138.153,155.288 136.153,154.121 134.5,152.5C 135.609,150.615 136.443,148.615 137,146.5C 137.725,145.941 138.558,145.608 139.5,145.5C 146.584,148.438 153.917,150.438 161.5,151.5 Z"/></g>
<g><path style="opacity:1" fill="#ddb1db" d="M 382.5,151.5 C 379.78,152.656 377.114,152.989 374.5,152.5C 378.374,150.998 378.041,150.331 373.5,150.5C 373.5,149.167 373.5,147.833 373.5,146.5C 376.774,146.372 376.941,145.039 374,142.5C 373.943,144.91 372.776,146.244 370.5,146.5C 370.18,140.003 373.18,137.836 379.5,140C 380.596,143.792 381.596,147.625 382.5,151.5 Z"/></g>
<g><path style="opacity:1" fill="#77577c" d="M 114.5,149.5 C 117.611,151.559 120.944,153.392 124.5,155C 122.873,157.754 121.373,160.588 120,163.5C 117.174,161.171 114.008,159.504 110.5,158.5C 111.075,155.088 112.408,152.088 114.5,149.5 Z"/></g>
<g><path style="opacity:1" fill="#715277" d="M 190.5,156.5 C 190.5,157.167 190.5,157.833 190.5,158.5C 189.513,161.146 188.513,163.812 187.5,166.5C 180.416,167.827 173.416,167.494 166.5,165.5C 166.572,161.054 168.405,157.72 172,155.5C 178.131,156.394 184.298,156.727 190.5,156.5 Z"/></g>
<g><path style="opacity:1" fill="#a07eac" d="M 382.5,151.5 C 382.5,151.833 382.5,152.167 382.5,152.5C 380.657,153.283 378.657,153.95 376.5,154.5C 374.746,157.813 375.746,159.48 379.5,159.5C 380.772,159.43 381.938,159.097 383,158.5C 383.236,156.155 384.07,154.155 385.5,152.5C 386.097,152.735 386.43,153.235 386.5,154C 384.997,155.921 384.331,158.088 384.5,160.5C 382.139,160.674 379.806,161.007 377.5,161.5C 376.886,166.031 378.886,168.197 383.5,168C 382.627,169.045 381.627,169.878 380.5,170.5C 379.432,169.566 378.099,169.232 376.5,169.5C 375.58,167.119 375.58,164.786 376.5,162.5C 373.19,158.069 371.856,153.236 372.5,148C 371.584,147.722 370.918,147.222 370.5,146.5C 372.776,146.244 373.943,144.91 374,142.5C 376.941,145.039 376.774,146.372 373.5,146.5C 373.5,147.833 373.5,149.167 373.5,150.5C 378.041,150.331 378.374,150.998 374.5,152.5C 377.114,152.989 379.78,152.656 382.5,151.5 Z"/></g>
<g><path style="opacity:1" fill="#eebfe8" d="M 382.5,152.5 C 383.5,152.5 384.5,152.5 385.5,152.5C 384.07,154.155 383.236,156.155 383,158.5C 381.938,159.097 380.772,159.43 379.5,159.5C 375.746,159.48 374.746,157.813 376.5,154.5C 378.657,153.95 380.657,153.283 382.5,152.5 Z"/></g>
<g><path style="opacity:1" fill="#83698c" d="M 377.5,155.5 C 383.391,155.605 383.725,156.605 378.5,158.5C 377.614,157.675 377.281,156.675 377.5,155.5 Z"/></g>
<g><path style="opacity:1" fill="#6f5176" d="M 364.5,158.5 C 365.371,161.112 366.037,163.779 366.5,166.5C 359.89,168.153 353.223,169.486 346.5,170.5C 345.833,170.5 345.167,170.5 344.5,170.5C 343.949,167.193 343.616,163.86 343.5,160.5C 343.833,160.5 344.167,160.5 344.5,160.5C 351.167,159.833 357.833,159.167 364.5,158.5 Z"/></g>
<g><path style="opacity:1" fill="#705177" d="M 218.5,160.5 C 218.5,160.833 218.5,161.167 218.5,161.5C 217.351,164.422 216.351,167.422 215.5,170.5C 208.507,171.568 201.507,171.568 194.5,170.5C 194.307,166.993 194.973,163.66 196.5,160.5C 203.775,160.181 211.108,160.181 218.5,160.5 Z"/></g>
<g><path style="opacity:1" fill="#705277" d="M 335.5,160.5 C 336.666,163.83 336.666,167.163 335.5,170.5C 328.228,171.872 320.895,172.872 313.5,173.5C 313.5,169.833 313.5,166.167 313.5,162.5C 320.827,161.773 328.16,161.107 335.5,160.5 Z"/></g>
<g><path style="opacity:1" fill="#705277" d="M 128.5,160.5 C 136.904,163.024 145.237,165.857 153.5,169C 153.957,169.414 154.291,169.914 154.5,170.5C 153.391,172.385 152.557,174.385 152,176.5C 149.557,177.285 147.057,177.119 144.5,176C 139.053,174.11 133.72,171.943 128.5,169.5C 127.259,166.463 127.259,163.463 128.5,160.5 Z"/></g>
<g><path style="opacity:1" fill="#715277" d="M 226.5,162.5 C 226.833,162.5 227.167,162.5 227.5,162.5C 234.123,163.38 240.789,163.713 247.5,163.5C 247.5,163.833 247.5,164.167 247.5,164.5C 247.099,167.748 246.432,170.915 245.5,174C 238.42,174.795 231.42,174.628 224.5,173.5C 224.87,169.767 225.537,166.101 226.5,162.5 Z"/></g>
<g><path style="opacity:1" fill="#725278" d="M 307.5,162.5 C 307.5,165.833 307.5,169.167 307.5,172.5C 300.833,173.167 294.167,173.833 287.5,174.5C 287.5,170.833 287.5,167.167 287.5,163.5C 294.18,163.388 300.847,163.054 307.5,162.5 Z"/></g>
<g><path style="opacity:1" fill="#715278" d="M 258.5,163.5 C 265.167,163.5 271.833,163.5 278.5,163.5C 278.756,167.269 278.423,170.936 277.5,174.5C 270.5,174.5 263.5,174.5 256.5,174.5C 256.335,171.15 256.502,167.817 257,164.5C 257.383,163.944 257.883,163.611 258.5,163.5 Z"/></g>
<g><path style="opacity:0.999" fill="#1f1e27" d="M 106.5,193.5 C 105.602,192.842 104.602,192.176 103.5,191.5C 108.867,182.629 114.033,173.629 119,164.5C 121.087,165.794 123.254,166.961 125.5,168C 126.954,178.224 123.621,186.557 115.5,193C 112.518,193.498 109.518,193.665 106.5,193.5 Z"/></g>
<g><path style="opacity:1" fill="#3a333f" d="M 366.5,166.5 C 367.275,170.814 367.941,175.147 368.5,179.5C 361.833,180.967 355.166,182.3 348.5,183.5C 348.167,183.5 347.833,183.5 347.5,183.5C 346.92,179.19 346.586,174.857 346.5,170.5C 353.223,169.486 359.89,168.153 366.5,166.5 Z"/></g>
<g><path style="opacity:0.999" fill="#1f1f28" d="M 344.5,170.5 C 345.167,170.5 345.833,170.5 346.5,170.5C 346.586,174.857 346.92,179.19 347.5,183.5C 344.482,183.704 341.482,184.037 338.5,184.5C 338.5,184.167 338.5,183.833 338.5,183.5C 337.838,179.534 337.505,175.534 337.5,171.5C 339.806,171.007 342.139,170.674 344.5,170.5 Z"/></g>
<g><path style="opacity:1" fill="#705176" d="M 158.5,183.5 C 158.933,180.834 159.433,178.168 160,175.5C 160.804,174.196 161.971,173.529 163.5,173.5C 169.748,175.145 176.081,176.312 182.5,177C 183.059,177.725 183.392,178.558 183.5,179.5C 182.622,182.13 181.955,184.797 181.5,187.5C 173.647,187.196 165.98,185.863 158.5,183.5 Z"/></g>
<g><path style="opacity:0.999" fill="#201f28" d="M 277.5,174.5 C 280.833,174.5 284.167,174.5 287.5,174.5C 287.5,178.5 287.5,182.5 287.5,186.5C 286.833,186.5 286.167,186.5 285.5,186.5C 282.833,186.5 280.167,186.5 277.5,186.5C 277.5,186.167 277.5,185.833 277.5,185.5C 277.5,181.833 277.5,178.167 277.5,174.5 Z"/></g>
<g><path style="opacity:1" fill="#bc96bf" d="M 384.5,160.5 C 386.113,162.428 387.113,164.762 387.5,167.5C 386.96,168.748 386.293,169.915 385.5,171C 387.936,172.101 390.103,173.601 392,175.5C 392.354,179.131 393.187,182.631 394.5,186C 394.167,186.833 393.833,187.667 393.5,188.5C 392.719,187.263 391.719,186.263 390.5,185.5C 389.376,186.914 388.376,188.414 387.5,190C 382.115,191.451 380.449,189.617 382.5,184.5C 378.68,181.509 378.68,178.342 382.5,175C 379.413,174.741 376.413,174.241 373.5,173.5C 373.5,173.167 373.5,172.833 373.5,172.5C 375.591,171.135 377.924,170.468 380.5,170.5C 381.627,169.878 382.627,169.045 383.5,168C 378.886,168.197 376.886,166.031 377.5,161.5C 379.806,161.007 382.139,160.674 384.5,160.5 Z"/></g>
<g><path style="opacity:1" fill="#1f1e28" d="M 158.5,183.5 C 156.996,190.826 154.663,197.826 151.5,204.5C 149.369,205.169 147.369,205.835 145.5,206.5C 144.833,206.5 144.5,206.167 144.5,205.5C 143.282,204.839 141.949,204.172 140.5,203.5C 143.764,196.208 146.931,188.874 150,181.5C 153.031,180.733 155.864,181.4 158.5,183.5 Z"/></g>
<g><path style="opacity:1" fill="#725278" d="M 368.5,179.5 C 369.49,182.743 370.49,186.076 371.5,189.5C 364.317,191.796 356.984,193.462 349.5,194.5C 348.886,190.865 348.552,187.198 348.5,183.5C 355.166,182.3 361.833,180.967 368.5,179.5 Z"/></g>
<g><path style="opacity:1" fill="#715277" d="M 212.5,183.5 C 211.626,186.789 210.959,190.123 210.5,193.5C 209.167,193.5 207.833,193.5 206.5,193.5C 200.341,193.267 194.341,192.267 188.5,190.5C 188.167,190.5 187.833,190.5 187.5,190.5C 187.959,187.123 188.626,183.789 189.5,180.5C 197.181,181.369 204.848,182.369 212.5,183.5 Z"/></g>
<g><path style="opacity:1" fill="#3e314c" d="M 212.5,183.5 C 217.324,183.992 221.99,184.659 226.5,185.5C 224.533,185.261 222.699,185.594 221,186.5C 218.925,189.834 218.091,193.501 218.5,197.5C 217.833,197.167 217.167,196.833 216.5,196.5C 214.05,196.702 211.717,196.369 209.5,195.5C 208.5,194.833 207.5,194.167 206.5,193.5C 207.833,193.5 209.167,193.5 210.5,193.5C 210.959,190.123 211.626,186.789 212.5,183.5 Z"/></g>
<g><path style="opacity:1" fill="#715277" d="M 338.5,183.5 C 338.5,183.833 338.5,184.167 338.5,184.5C 339.244,188.119 339.577,191.785 339.5,195.5C 331.155,196.418 322.822,197.418 314.5,198.5C 314.167,198.5 313.833,198.5 313.5,198.5C 313.203,194.233 313.536,190.066 314.5,186C 322.569,185.686 330.569,184.853 338.5,183.5 Z"/></g>
<g><path style="opacity:1" fill="#3f324d" d="M 347.5,183.5 C 347.833,183.5 348.167,183.5 348.5,183.5C 348.552,187.198 348.886,190.865 349.5,194.5C 349.5,194.833 349.5,195.167 349.5,195.5C 346.119,195.46 342.786,195.793 339.5,196.5C 339.5,196.167 339.5,195.833 339.5,195.5C 339.577,191.785 339.244,188.119 338.5,184.5C 341.482,184.037 344.482,183.704 347.5,183.5 Z"/></g>
<g><path style="opacity:1" fill="#715277" d="M 226.5,185.5 C 232.69,185.177 238.69,185.51 244.5,186.5C 243.619,190.454 242.952,194.454 242.5,198.5C 234.475,198.61 226.475,198.276 218.5,197.5C 218.091,193.501 218.925,189.834 221,186.5C 222.699,185.594 224.533,185.261 226.5,185.5 Z"/></g>
<g><path style="opacity:1" fill="#735379" d="M 277.5,185.5 C 277.5,185.833 277.5,186.167 277.5,186.5C 277.5,190.833 277.5,195.167 277.5,199.5C 273.833,199.5 270.167,199.5 266.5,199.5C 262.116,199.826 257.783,199.492 253.5,198.5C 254.433,194.571 254.766,190.571 254.5,186.5C 262.201,186.691 269.868,186.358 277.5,185.5 Z"/></g>
<g><path style="opacity:1" fill="#705176" d="M 307.5,198.5 C 300.178,199.038 292.845,199.371 285.5,199.5C 285.5,195.167 285.5,190.833 285.5,186.5C 286.167,186.5 286.833,186.5 287.5,186.5C 294.153,185.946 300.82,185.612 307.5,185.5C 307.5,189.833 307.5,194.167 307.5,198.5 Z"/></g>
<g><path style="opacity:1" fill="#41334e" d="M 244.5,186.5 C 247.833,186.5 251.167,186.5 254.5,186.5C 254.766,190.571 254.433,194.571 253.5,198.5C 257.783,199.492 262.116,199.826 266.5,199.5C 262.366,200.485 258.032,200.818 253.5,200.5C 249.881,199.756 246.215,199.423 242.5,199.5C 242.5,199.167 242.5,198.833 242.5,198.5C 242.952,194.454 243.619,190.454 244.5,186.5 Z"/></g>
<g><path style="opacity:0.999" fill="#1f1e28" d="M 187.5,190.5 C 187.833,190.5 188.167,190.5 188.5,190.5C 185.561,197.984 183.228,205.65 181.5,213.5C 179.833,213.5 178.167,213.5 176.5,213.5C 175.391,212.71 174.058,212.21 172.5,212C 175.711,204.333 178.545,196.499 181,188.5C 183.087,189.397 185.254,190.064 187.5,190.5 Z"/></g>
<g><path style="opacity:0.992" fill="#39333e" d="M 188.5,190.5 C 194.341,192.267 200.341,193.267 206.5,193.5C 207.5,194.167 208.5,194.833 209.5,195.5C 207.814,203.1 205.814,210.6 203.5,218C 204.737,218.232 205.737,218.732 206.5,219.5C 205.244,219.904 204.077,220.571 203,221.5C 194.124,218.578 185.291,215.912 176.5,213.5C 178.167,213.5 179.833,213.5 181.5,213.5C 183.228,205.65 185.561,197.984 188.5,190.5 Z"/></g>
<g><path style="opacity:0.989" fill="#3a343f" d="M 371.5,189.5 C 371.848,193.557 372.514,197.557 373.5,201.5C 374.791,201.263 375.791,201.596 376.5,202.5C 375.596,203.209 375.263,204.209 375.5,205.5C 364.944,207.871 354.278,209.704 343.5,211C 342.289,212.113 342.289,213.28 343.5,214.5C 332.6,216.521 321.6,217.521 310.5,217.5C 311.315,216.163 312.482,215.163 314,214.5C 314.499,209.177 314.666,203.844 314.5,198.5C 322.822,197.418 331.155,196.418 339.5,195.5C 339.5,195.833 339.5,196.167 339.5,196.5C 339.846,201.273 340.679,205.94 342,210.5C 344.899,210.023 347.566,209.023 350,207.5C 350.497,203.476 350.331,199.476 349.5,195.5C 349.5,195.167 349.5,194.833 349.5,194.5C 356.984,193.462 364.317,191.796 371.5,189.5 Z"/></g>
<g><path style="opacity:0.999" fill="#1f1e27" d="M 349.5,195.5 C 350.331,199.476 350.497,203.476 350,207.5C 347.566,209.023 344.899,210.023 342,210.5C 340.679,205.94 339.846,201.273 339.5,196.5C 342.786,195.793 346.119,195.46 349.5,195.5 Z"/></g>
<g><path style="opacity:0.999" fill="#1e1e27" d="M 209.5,195.5 C 211.717,196.369 214.05,196.702 216.5,196.5C 215.473,204.302 213.806,211.969 211.5,219.5C 210.167,219.5 208.833,219.5 207.5,219.5C 207.167,219.5 206.833,219.5 206.5,219.5C 205.737,218.732 204.737,218.232 203.5,218C 205.814,210.6 207.814,203.1 209.5,195.5 Z"/></g>
<g><path style="opacity:0.988" fill="#38333d" d="M 216.5,196.5 C 217.167,196.833 217.833,197.167 218.5,197.5C 226.475,198.276 234.475,198.61 242.5,198.5C 242.5,198.833 242.5,199.167 242.5,199.5C 241.553,206.904 240.219,214.237 238.5,221.5C 239.602,222.176 240.602,222.842 241.5,223.5C 240.033,223.894 238.533,224.227 237,224.5C 227,222.996 217.167,221.329 207.5,219.5C 208.833,219.5 210.167,219.5 211.5,219.5C 213.806,211.969 215.473,204.302 216.5,196.5 Z"/></g>
<g><path style="opacity:1" fill="#201f28" d="M 307.5,198.5 C 309.5,198.5 311.5,198.5 313.5,198.5C 313.833,198.5 314.167,198.5 314.5,198.5C 314.666,203.844 314.499,209.177 314,214.5C 312.482,215.163 311.315,216.163 310.5,217.5C 309.5,217.5 308.5,217.5 307.5,217.5C 307.5,211.167 307.5,204.833 307.5,198.5 Z"/></g>
<g><path style="opacity:0.993" fill="#39333f" d="M 277.5,186.5 C 280.167,186.5 282.833,186.5 285.5,186.5C 285.5,190.833 285.5,195.167 285.5,199.5C 292.845,199.371 300.178,199.038 307.5,198.5C 307.5,204.833 307.5,211.167 307.5,217.5C 308.5,217.5 309.5,217.5 310.5,217.5C 309.02,219.412 307.02,220.579 304.5,221C 298.843,221.499 293.176,221.666 287.5,221.5C 286.5,221.5 285.5,221.5 284.5,221.5C 284.5,214.5 284.5,207.5 284.5,200.5C 281.833,200.5 279.167,200.5 276.5,200.5C 276.753,206.873 276.419,213.206 275.5,219.5C 275.942,220.739 276.609,221.739 277.5,222.5C 276.287,223.575 274.787,224.241 273,224.5C 264.637,223.514 256.471,223.18 248.5,223.5C 251.098,216.291 252.764,208.624 253.5,200.5C 258.032,200.818 262.366,200.485 266.5,199.5C 270.167,199.5 273.833,199.5 277.5,199.5C 277.5,195.167 277.5,190.833 277.5,186.5 Z"/></g>
<g><path style="opacity:1" fill="#201f29" d="M 242.5,199.5 C 246.215,199.423 249.881,199.756 253.5,200.5C 252.764,208.624 251.098,216.291 248.5,223.5C 245.921,223.865 243.588,223.865 241.5,223.5C 240.602,222.842 239.602,222.176 238.5,221.5C 240.219,214.237 241.553,206.904 242.5,199.5 Z"/></g>
<g><path style="opacity:1" fill="#1d1d26" d="M 287.5,221.5 C 284.363,223.39 281.03,223.724 277.5,222.5C 276.609,221.739 275.942,220.739 275.5,219.5C 276.419,213.206 276.753,206.873 276.5,200.5C 279.167,200.5 281.833,200.5 284.5,200.5C 284.5,207.5 284.5,214.5 284.5,221.5C 285.5,221.5 286.5,221.5 287.5,221.5 Z"/></g>
<g><path style="opacity:0.993" fill="#fdcdf5" d="M 212.5,228.5 C 212.5,233.5 212.5,238.5 212.5,243.5C 214.833,243.5 217.167,243.5 219.5,243.5C 225.176,243.334 230.843,243.501 236.5,244C 239.595,244.935 241.929,246.769 243.5,249.5C 244.594,251.359 245.427,253.359 246,255.5C 246.667,266.833 246.667,278.167 246,289.5C 246.013,297.003 242.513,301.836 235.5,304C 224.839,304.5 214.172,304.667 203.5,304.5C 201.167,304.5 198.833,304.5 196.5,304.5C 196.5,290.167 196.5,275.833 196.5,261.5C 196.5,249.167 196.5,236.833 196.5,224.5C 201.833,224.5 207.167,224.5 212.5,224.5C 212.5,225.833 212.5,227.167 212.5,228.5 Z M 231.5,259.5 C 231.666,269.839 231.5,280.172 231,290.5C 230.535,291.931 229.701,293.097 228.5,294C 225.518,294.498 222.518,294.665 219.5,294.5C 219.5,282.833 219.5,271.167 219.5,259.5C 223.5,259.5 227.5,259.5 231.5,259.5 Z"/></g>
<g><path style="opacity:0.988" fill="#fecdf5" d="M 72.5,232.5 C 72.5,234.167 72.5,235.833 72.5,237.5C 61.5,237.5 50.5,237.5 39.5,237.5C 39.5,245.833 39.5,254.167 39.5,262.5C 41.1667,262.5 42.8333,262.5 44.5,262.5C 51.1667,262.5 57.8333,262.5 64.5,262.5C 64.5,264.167 64.5,265.833 64.5,267.5C 63.5489,268.919 63.2155,270.585 63.5,272.5C 55.5,272.5 47.5,272.5 39.5,272.5C 39.5,283.167 39.5,293.833 39.5,304.5C 35.3998,304.237 31.3998,304.57 27.5,305.5C 26.1779,305.67 25.0113,305.337 24,304.5C 23.5,278.835 23.3334,253.169 23.5,227.5C 39.8333,227.5 56.1667,227.5 72.5,227.5C 72.5,229.167 72.5,230.833 72.5,232.5 Z"/></g>
<g><path style="opacity:0.982" fill="#fecdf5" d="M 415.5,232.5 C 417.797,235.431 419.297,238.764 420,242.5C 420.667,257.833 420.667,273.167 420,288.5C 419.35,295.644 415.85,300.811 409.5,304C 400.84,304.5 392.173,304.666 383.5,304.5C 374.742,301.885 370.242,295.885 370,286.5C 369.5,279.174 369.334,271.841 369.5,264.5C 370.702,259.023 370.702,253.689 369.5,248.5C 369.544,239.233 373.544,232.399 381.5,228C 390.833,227.333 400.167,227.333 409.5,228C 412.106,228.792 414.106,230.292 415.5,232.5 Z M 405.5,243.5 C 406.981,258.855 406.815,274.188 405,289.5C 402.987,293.984 399.487,295.651 394.5,294.5C 394.333,279.163 394.5,263.83 395,248.5C 396.856,243.865 400.356,242.198 405.5,243.5 Z"/></g>
<g><path style="opacity:0.984" fill="#fecdf5" d="M 474.5,232.5 C 474.5,234.167 474.5,235.833 474.5,237.5C 464.753,237.08 455.086,237.58 445.5,239C 441.258,245.89 441.758,252.39 447,258.5C 449.324,259.693 451.49,259.693 453.5,258.5C 458.248,258.275 462.915,258.775 467.5,260C 470.106,260.792 472.106,262.292 473.5,264.5C 478.567,275.275 478.733,286.275 474,297.5C 471.795,300.04 469.295,302.207 466.5,304C 457.657,304.17 448.99,304.67 440.5,305.5C 437.482,305.665 434.482,305.498 431.5,305C 430.556,302.281 430.223,299.448 430.5,296.5C 430.5,295.833 430.5,295.167 430.5,294.5C 440.605,294.949 450.605,294.449 460.5,293C 463.102,288.19 464.102,283.024 463.5,277.5C 462.647,274.482 460.647,272.649 457.5,272C 452.845,271.501 448.179,271.334 443.5,271.5C 437.691,271.101 433.357,268.435 430.5,263.5C 428.918,256.604 428.251,249.604 428.5,242.5C 430.058,236.104 433.724,231.27 439.5,228C 451.162,227.5 462.829,227.333 474.5,227.5C 474.5,229.167 474.5,230.833 474.5,232.5 Z"/></g>
<g><path style="opacity:0.943" fill="#ac84c4" d="M 212.5,228.5 C 214.792,228.244 216.959,228.577 219,229.5C 219.499,234.155 219.666,238.821 219.5,243.5C 217.167,243.5 214.833,243.5 212.5,243.5C 212.5,238.5 212.5,233.5 212.5,228.5 Z"/></g>
<g><path style="opacity:0.852" fill="#ad85c4" d="M 72.5,232.5 C 74.1667,232.5 75.8333,232.5 77.5,232.5C 77.5,236.167 77.5,239.833 77.5,243.5C 66.5,243.5 55.5,243.5 44.5,243.5C 44.5,249.833 44.5,256.167 44.5,262.5C 42.8333,262.5 41.1667,262.5 39.5,262.5C 39.5,254.167 39.5,245.833 39.5,237.5C 50.5,237.5 61.5,237.5 72.5,237.5C 72.5,235.833 72.5,234.167 72.5,232.5 Z"/></g>
<g><path style="opacity:0.973" fill="#ae86c4" d="M 474.5,232.5 C 478.167,232.5 481.833,232.5 485.5,232.5C 485.789,236.106 485.456,239.606 484.5,243C 475.167,243.333 465.833,243.667 456.5,244C 455.107,245.171 454.273,246.671 454,248.5C 453.502,251.817 453.335,255.15 453.5,258.5C 451.49,259.693 449.324,259.693 447,258.5C 441.758,252.39 441.258,245.89 445.5,239C 455.086,237.58 464.753,237.08 474.5,237.5C 474.5,235.833 474.5,234.167 474.5,232.5 Z"/></g>
<g><path style="opacity:0.974" fill="#ad85c4" d="M 415.5,232.5 C 421.88,233.188 426.213,236.522 428.5,242.5C 428.251,249.604 428.918,256.604 430.5,263.5C 430.5,273.833 430.5,284.167 430.5,294.5C 430.5,295.167 430.5,295.833 430.5,296.5C 428.631,304.535 423.631,309.368 415.5,311C 408.167,311.667 400.833,311.667 393.5,311C 388.945,310.565 385.611,308.398 383.5,304.5C 392.173,304.666 400.84,304.5 409.5,304C 415.85,300.811 419.35,295.644 420,288.5C 420.667,273.167 420.667,257.833 420,242.5C 419.297,238.764 417.797,235.431 415.5,232.5 Z"/></g>
<g><path style="opacity:0.93" fill="#ad85c4" d="M 405.5,243.5 C 400.356,242.198 396.856,243.865 395,248.5C 394.5,263.83 394.333,279.163 394.5,294.5C 389.645,295.898 386.479,293.898 385,288.5C 384.333,273.5 384.333,258.5 385,243.5C 386.761,238.534 390.261,236.534 395.5,237.5C 400.831,236.488 404.164,238.488 405.5,243.5 Z"/></g>
<g><path style="opacity:0.979" fill="#fecdf5" d="M 129.5,250.5 C 130.593,257.45 130.76,264.45 130,271.5C 128.719,275.237 126.219,277.737 122.5,279C 113.84,279.5 105.173,279.666 96.5,279.5C 96.3343,283.846 96.501,288.179 97,292.5C 98.1096,294.037 99.6096,294.703 101.5,294.5C 109.833,294.5 118.167,294.5 126.5,294.5C 126.5,296.5 126.5,298.5 126.5,300.5C 126.5,301.833 126.5,303.167 126.5,304.5C 114.829,304.667 103.162,304.5 91.5,304C 90.255,303.209 88.9217,302.709 87.5,302.5C 84.4445,300.737 82.6111,298.07 82,294.5C 81.3333,280.833 81.3333,267.167 82,253.5C 83.1935,248.306 86.3601,245.14 91.5,244C 101.833,243.333 112.167,243.333 122.5,244C 125.987,244.989 128.32,247.155 129.5,250.5 Z M 117.5,259.5 C 117.893,262.93 117.227,266.096 115.5,269C 110.964,270.379 106.297,270.879 101.5,270.5C 101.307,266.993 101.973,263.66 103.5,260.5C 108.12,259.507 112.786,259.173 117.5,259.5 Z"/></g>
<g><path style="opacity:0.985" fill="#fecdf5" d="M 187.5,249.5 C 187.709,250.922 188.209,252.255 189,253.5C 189.5,270.497 189.667,287.497 189.5,304.5C 187.167,304.5 184.833,304.5 182.5,304.5C 180.5,304.5 178.5,304.5 176.5,304.5C 176.5,289.5 176.5,274.5 176.5,259.5C 176.118,254.629 173.451,252.629 168.5,253.5C 168.5,270.5 168.5,287.5 168.5,304.5C 167.167,304.5 165.833,304.5 164.5,304.5C 162.5,304.5 160.5,304.5 158.5,304.5C 158.5,287.5 158.5,270.5 158.5,253.5C 156.5,253.5 154.5,253.5 152.5,253.5C 152.5,270.5 152.5,287.5 152.5,304.5C 149.5,304.5 146.5,304.5 143.5,304.5C 141.833,304.5 140.167,304.5 138.5,304.5C 138.5,284.167 138.5,263.833 138.5,243.5C 152.504,243.333 166.504,243.5 180.5,244C 183.595,244.935 185.929,246.769 187.5,249.5 Z"/></g>
<g><path style="opacity:0.985" fill="#fecdf5" d="M 302.5,249.5 C 303.801,250.882 304.634,252.548 305,254.5C 305.667,266.5 305.667,278.5 305,290.5C 304.859,297.638 301.359,302.138 294.5,304C 284.172,304.5 273.839,304.666 263.5,304.5C 258.4,303.066 255.4,299.733 254.5,294.5C 253.564,282.871 253.23,271.204 253.5,259.5C 253.205,251.91 256.538,246.744 263.5,244C 274.167,243.333 284.833,243.333 295.5,244C 299.072,244.432 301.405,246.265 302.5,249.5 Z M 290.5,259.5 C 290.906,270.564 290.406,281.564 289,292.5C 288.5,293 288,293.5 287.5,294C 283.848,294.499 280.182,294.665 276.5,294.5C 276.069,283.422 276.569,272.422 278,261.5C 278.5,261 279,260.5 279.5,260C 283.152,259.501 286.818,259.335 290.5,259.5 Z"/></g>
<g><path style="opacity:0.977" fill="#fecdf5" d="M 328.5,248.5 C 331.577,259.73 335.243,270.73 339.5,281.5C 341.309,278.407 342.309,275.074 342.5,271.5C 345.932,262.711 349.098,253.711 352,244.5C 356.401,243.533 360.901,243.2 365.5,243.5C 365.371,245.216 365.038,246.883 364.5,248.5C 353.869,274.386 344.202,300.719 335.5,327.5C 333.901,327.232 332.568,327.566 331.5,328.5C 328.167,328.5 324.833,328.5 321.5,328.5C 324.142,319.742 327.475,311.242 331.5,303C 324.167,283.333 316.833,263.667 309.5,244C 315.167,243.333 320.833,243.333 326.5,244C 327.267,245.47 327.933,246.97 328.5,248.5 Z"/></g>
<g><path style="opacity:0.951" fill="#ad85c4" d="M 328.5,248.5 C 330.833,248.5 333.167,248.5 335.5,248.5C 337.232,256.362 339.566,264.029 342.5,271.5C 342.309,275.074 341.309,278.407 339.5,281.5C 335.243,270.73 331.577,259.73 328.5,248.5 Z"/></g>
<g><path style="opacity:0.966" fill="#ae86c4" d="M 364.5,248.5 C 366.167,248.5 367.833,248.5 369.5,248.5C 370.702,253.689 370.702,259.023 369.5,264.5C 360.734,287.286 352.234,310.286 344,333.5C 339.218,334.802 334.385,334.802 329.5,333.5C 330.456,331.925 331.123,330.258 331.5,328.5C 332.568,327.566 333.901,327.232 335.5,327.5C 344.202,300.719 353.869,274.386 364.5,248.5 Z"/></g>
<g><path style="opacity:0.974" fill="#ad85c4" d="M 302.5,249.5 C 308.269,249.807 311.769,252.807 313,258.5C 314.51,270.795 314.843,283.128 314,295.5C 313.944,302.463 310.777,307.296 304.5,310C 293.167,310.667 281.833,310.667 270.5,310C 267.428,309.093 265.095,307.26 263.5,304.5C 273.839,304.666 284.172,304.5 294.5,304C 301.359,302.138 304.859,297.638 305,290.5C 305.667,278.5 305.667,266.5 305,254.5C 304.634,252.548 303.801,250.882 302.5,249.5 Z"/></g>
<g><path style="opacity:0.938" fill="#ae86c4" d="M 129.5,250.5 C 132.822,251.658 134.988,253.992 136,257.5C 138.035,264.93 137.701,272.264 135,279.5C 133.039,282.135 130.539,283.969 127.5,285C 118.84,285.5 110.173,285.666 101.5,285.5C 101.5,288.5 101.5,291.5 101.5,294.5C 99.6096,294.703 98.1096,294.037 97,292.5C 96.501,288.179 96.3343,283.846 96.5,279.5C 105.173,279.666 113.84,279.5 122.5,279C 126.219,277.737 128.719,275.237 130,271.5C 130.76,264.45 130.593,257.45 129.5,250.5 Z"/></g>
<g><path style="opacity:0.931" fill="#ad85c4" d="M 187.5,249.5 C 192.844,251.831 195.844,255.831 196.5,261.5C 196.5,275.833 196.5,290.167 196.5,304.5C 196.5,306.5 196.5,308.5 196.5,310.5C 191.833,310.5 187.167,310.5 182.5,310.5C 182.5,308.5 182.5,306.5 182.5,304.5C 184.833,304.5 187.167,304.5 189.5,304.5C 189.667,287.497 189.5,270.497 189,253.5C 188.209,252.255 187.709,250.922 187.5,249.5 Z"/></g>
<g><path style="opacity:0.978" fill="#ad85c4" d="M 243.5,249.5 C 248.532,251.199 251.866,254.532 253.5,259.5C 253.23,271.204 253.564,282.871 254.5,294.5C 253.916,298.699 252.416,302.699 250,306.5C 248.421,308.041 246.587,309.208 244.5,310C 230.837,310.5 217.171,310.667 203.5,310.5C 203.5,308.5 203.5,306.5 203.5,304.5C 214.172,304.667 224.839,304.5 235.5,304C 242.513,301.836 246.013,297.003 246,289.5C 246.667,278.167 246.667,266.833 246,255.5C 245.427,253.359 244.594,251.359 243.5,249.5 Z"/></g>
<g><path style="opacity:0.977" fill="#ad85c3" d="M 117.5,259.5 C 112.786,259.173 108.12,259.507 103.5,260.5C 101.973,263.66 101.307,266.993 101.5,270.5C 99.8333,270.5 98.1667,270.5 96.5,270.5C 96.3342,265.821 96.5008,261.155 97,256.5C 97.3742,255.584 97.8742,254.75 98.5,254C 104.167,253.333 109.833,253.333 115.5,254C 117.155,255.444 117.822,257.278 117.5,259.5 Z"/></g>
<g><path style="opacity:0.929" fill="#ad84c4" d="M 158.5,304.5 C 158.5,306.5 158.5,308.5 158.5,310.5C 153.5,310.5 148.5,310.5 143.5,310.5C 143.5,308.5 143.5,306.5 143.5,304.5C 146.5,304.5 149.5,304.5 152.5,304.5C 152.5,287.5 152.5,270.5 152.5,253.5C 154.5,253.5 156.5,253.5 158.5,253.5C 158.5,270.5 158.5,287.5 158.5,304.5 Z"/></g>
<g><path style="opacity:0.905" fill="#af86c4" d="M 176.5,259.5 C 175.503,276.325 175.17,293.325 175.5,310.5C 171.833,310.5 168.167,310.5 164.5,310.5C 164.5,308.5 164.5,306.5 164.5,304.5C 165.833,304.5 167.167,304.5 168.5,304.5C 168.5,287.5 168.5,270.5 168.5,253.5C 173.451,252.629 176.118,254.629 176.5,259.5 Z"/></g>
<g><path style="opacity:0.967" fill="#ad85c4" d="M 231.5,259.5 C 227.5,259.5 223.5,259.5 219.5,259.5C 219.5,271.167 219.5,282.833 219.5,294.5C 217.167,294.5 214.833,294.5 212.5,294.5C 212.5,280.833 212.5,267.167 212.5,253.5C 218.176,253.334 223.843,253.501 229.5,254C 231.155,255.444 231.822,257.278 231.5,259.5 Z"/></g>
<g><path style="opacity:0.97" fill="#af87c5" d="M 290.5,259.5 C 286.818,259.335 283.152,259.501 279.5,260C 279,260.5 278.5,261 278,261.5C 276.569,272.422 276.069,283.422 276.5,294.5C 272.934,295.861 270.434,294.528 269,290.5C 268.065,278.762 268.398,267.095 270,255.5C 270.5,255 271,254.5 271.5,254C 276.833,253.333 282.167,253.333 287.5,254C 289.607,255.264 290.607,257.097 290.5,259.5 Z"/></g>
<g><path style="opacity:0.969" fill="#ad86c4" d="M 473.5,264.5 C 481.721,265.553 486.554,270.219 488,278.5C 492.04,302.954 481.873,313.954 457.5,311.5C 452.167,311.333 446.833,311.167 441.5,311C 440.594,309.301 440.261,307.467 440.5,305.5C 448.99,304.67 457.657,304.17 466.5,304C 469.295,302.207 471.795,300.04 474,297.5C 478.733,286.275 478.567,275.275 473.5,264.5 Z"/></g>
<g><path style="opacity:0.928" fill="#ae85c4" d="M 64.5,267.5 C 65.8333,267.5 67.1667,267.5 68.5,267.5C 68.5,270.833 68.5,274.167 68.5,277.5C 60.5,277.5 52.5,277.5 44.5,277.5C 44.6665,288.505 44.4998,299.505 44,310.5C 38.918,311.637 33.7513,311.804 28.5,311C 27.5939,309.301 27.2606,307.467 27.5,305.5C 31.3998,304.57 35.3998,304.237 39.5,304.5C 39.5,293.833 39.5,283.167 39.5,272.5C 47.5,272.5 55.5,272.5 63.5,272.5C 63.2155,270.585 63.5489,268.919 64.5,267.5 Z"/></g>
<g><path style="opacity:0.957" fill="#ad84c4" d="M 443.5,271.5 C 448.179,271.334 452.845,271.501 457.5,272C 460.647,272.649 462.647,274.482 463.5,277.5C 456.804,278.151 450.471,276.985 444.5,274C 443.748,273.329 443.414,272.496 443.5,271.5 Z"/></g>
<g><path style="opacity:0.972" fill="#ad85c4" d="M 126.5,300.5 C 128.167,300.5 129.833,300.5 131.5,300.5C 131.5,303.833 131.5,307.167 131.5,310.5C 119.495,310.667 107.495,310.5 95.5,310C 91.6775,308.676 89.0108,306.176 87.5,302.5C 88.9217,302.709 90.255,303.209 91.5,304C 103.162,304.5 114.829,304.667 126.5,304.5C 126.5,303.167 126.5,301.833 126.5,300.5 Z"/></g>
</svg>
